<?xml version="1.0" encoding="UTF-8" standalone="no"?>
<!-- Created with Inkscape (http://www.inkscape.org/) -->

<svg
   xmlns:dc="http://purl.org/dc/elements/1.1/"
   xmlns:cc="http://creativecommons.org/ns#"
   xmlns:rdf="http://www.w3.org/1999/02/22-rdf-syntax-ns#"
   xmlns:svg="http://www.w3.org/2000/svg"
   xmlns="http://www.w3.org/2000/svg"
   xmlns:xlink="http://www.w3.org/1999/xlink"
   xmlns:sodipodi="http://sodipodi.sourceforge.net/DTD/sodipodi-0.dtd"
   xmlns:inkscape="http://www.inkscape.org/namespaces/inkscape"
   width="63.935692"
   height="63.844788"
   id="svg3136"
   version="1.1"
   inkscape:version="0.91 r13725"
   sodipodi:docname="grooveshark-app.svg">
  <defs
     id="defs3138">
    <linearGradient
       inkscape:collect="always"
       xlink:href="#linearGradient7567"
       id="linearGradient3845"
       gradientUnits="userSpaceOnUse"
       gradientTransform="matrix(1.01883,0,0,1.01591,-0.648953,-0.463736)"
       x1="61.9585"
       y1="3"
       x2="6.2233124"
       y2="58.090912" />
    <linearGradient
       id="linearGradient7567">
      <stop
         style="stop-color:#9bdfee;stop-opacity:1;"
         offset="0"
         id="stop7569" />
      <stop
         style="stop-color:#66b7c9;stop-opacity:1;"
         offset="1"
         id="stop7571" />
    </linearGradient>
  </defs>
  <sodipodi:namedview
     id="base"
     pagecolor="#ffffff"
     bordercolor="#666666"
     borderopacity="1.0"
     inkscape:pageopacity="0.0"
     inkscape:pageshadow="2"
     inkscape:zoom="6.4844761"
     inkscape:cx="19.465838"
     inkscape:cy="26.483897"
     inkscape:document-units="px"
     inkscape:current-layer="layer1"
     showgrid="false"
     fit-margin-top="0"
     fit-margin-left="0"
     fit-margin-right="0"
     fit-margin-bottom="0"
     inkscape:window-width="1680"
     inkscape:window-height="1022"
     inkscape:window-x="0"
     inkscape:window-y="23"
     inkscape:window-maximized="1" />
  <metadata
     id="metadata3141">
    <rdf:RDF>
      <cc:Work
         rdf:about="">
        <dc:format>image/svg+xml</dc:format>
        <dc:type
           rdf:resource="http://purl.org/dc/dcmitype/StillImage" />
        <dc:title />
      </cc:Work>
    </rdf:RDF>
  </metadata>
  <g
     inkscape:label="Layer 1"
     inkscape:groupmode="layer"
     id="layer1"
     transform="translate(-343.03215,-500.43979)">
    <g
       transform="translate(343,500.31673)"
       style="display:inline"
       id="g3837">
      <rect
         ry="2.9927244"
         y="0.12306051"
         x="0.032151747"
         height="63.844788"
         width="63.935692"
         id="rect3839"
         style="fill:url(#linearGradient3845);fill-opacity:1;stroke:none" />
    </g>
    <path
       inkscape:connector-curvature="0"
       style="clip-rule:evenodd;fill-rule:evenodd"
       d="m 370.9967,542.23757 c -3.13922,0 -6.2802,0 -9.41942,0 -3.67099,-10e-4 -6.69143,-2.50109 -7.36856,-6.09585 -0.71789,-3.80393 1.70343,-7.57417 5.47546,-8.47641 0.5229,-0.12408 0.79234,-0.33679 0.99972,-0.84197 1.83461,-4.47928 6.42378,-7.20371 11.28062,-6.74107 4.78947,0.45909 8.78307,4.07868 9.69061,8.85042 0.13827,0.72499 0.37934,1.08127 1.12559,1.35069 2.66949,0.96074 4.23466,3.70467 3.88724,6.56914 -0.33147,2.71734 -2.5525,4.95255 -5.31062,5.29997 -0.60444,0.0762 -1.22129,0.0779 -1.83283,0.0798 -2.84319,0.008 -5.68462,0.005 -8.52781,0.005 z m 10.77188,-9.34142 c -0.1294,0.51582 -0.22866,0.98555 -0.36869,1.44287 -0.26412,0.87387 -0.99974,1.30993 -1.78498,1.08304 -0.78525,-0.22689 -1.12558,-0.97491 -0.90578,-1.87892 0.16131,-0.66294 0.33324,-1.34006 0.3687,-2.01718 0.23221,-4.72566 -3.38383,-8.57922 -8.12013,-8.69089 -3.18353,-0.0744 -6.38301,1.94273 -7.56354,4.78947 0.12049,0.0461 0.23575,0.1028 0.35629,0.14004 1.0653,0.32969 1.99414,0.88805 2.81838,1.62898 0.47859,0.42896 0.73384,0.93946 0.52822,1.58821 -0.33856,1.07064 -1.5244,1.30993 -2.40892,0.49455 -1.54568,-1.42691 -3.72239,-1.67684 -5.51091,-0.6328 -1.78674,1.04404 -2.65353,3.0949 -2.16252,5.11031 0.51581,2.10758 2.40536,3.5079 4.76997,3.5079 6.12953,0.004 12.25907,0.004 18.38859,-0.004 0.35098,0 0.70549,-0.0372 1.05114,-0.10461 1.37729,-0.26235 2.54895,-1.55986 2.66948,-2.92828 0.14004,-1.58114 -0.66647,-2.94601 -2.1253,-3.52919 z"
       id="path3" />
    <path
       inkscape:connector-curvature="0"
       style="clip-rule:evenodd;fill-rule:evenodd"
       d="m 395.91721,535.8316 c -0.0461,3.06477 -0.79589,5.72007 -2.3717,8.12722 -0.34743,0.52999 -0.8207,0.81537 -1.4535,0.70547 -1.04759,-0.1808 -1.50846,-1.25851 -0.92351,-2.17847 0.89691,-1.4092 1.51554,-2.91587 1.77788,-4.56968 0.46264,-2.92296 -0.10098,-5.63322 -1.65735,-8.14495 -0.14357,-0.23397 -0.2907,-0.4839 -0.34742,-0.74802 -0.14004,-0.65407 0.22335,-1.29219 0.82247,-1.53681 0.6009,-0.24462 1.31879,-0.0603 1.68572,0.48214 1.34182,1.98705 2.12885,4.17794 2.36991,6.56381 0.0514,0.49987 0.0744,0.99973 0.0975,1.29929 z"
       id="path5" />
    <path
       inkscape:connector-curvature="0"
       style="clip-rule:evenodd;fill-rule:evenodd"
       d="m 391.26245,536.21803 c -0.0177,1.8541 -0.55305,3.71529 -1.64672,5.41164 -0.48923,0.7622 -1.33297,1.01567 -2.00123,0.60798 -0.71611,-0.43959 -0.86855,-1.28865 -0.38286,-2.0863 1.66265,-2.72266 1.67507,-5.45242 0.0319,-8.18748 -0.50873,-0.84729 -0.37402,-1.69813 0.34919,-2.13241 0.70193,-0.42187 1.51731,-0.16838 2.03313,0.647 1.07595,1.70165 1.61481,3.56285 1.61658,5.73957 z"
       id="path7" />
    <path
       style="fill:#ececec"
       d="m 17.789549,38.900732 c -0.622907,-0.104 -1.402125,-0.425553 -1.977327,-0.815964 -1.181029,-0.801609 -1.90289,-2.19044 -1.90289,-3.661083 0,-0.806775 0.112629,-1.298778 0.464919,-2.030937 0.362108,-0.752562 0.82537,-1.290679 1.519361,-1.764861 1.739826,-1.188771 3.954858,-1.056743 5.610783,0.334434 0.997716,0.838202 1.994371,0.770055 2.461993,-0.168339 0.432415,-0.867745 0.166116,-1.477514 -1.03551,-2.371091 -0.55065,-0.409487 -1.510254,-0.909738 -2.138149,-1.114639 l -0.403237,-0.131589 0.201866,-0.39914 c 1.432046,-2.831506 4.83357,-4.657282 8.010723,-4.299773 2.929145,0.329602 5.28682,1.955506 6.550677,4.517492 0.458852,0.930146 0.687627,1.705407 0.818137,2.772455 0.104755,0.856476 0.04386,1.684919 -0.204695,2.78494 -0.104355,0.46183 -0.189736,0.947916 -0.189736,1.08019 0,0.794317 0.608315,1.42012 1.380434,1.42012 0.879281,0 1.307647,-0.511483 1.66286,-1.985511 0.07409,-0.307465 0.16345,-0.559027 0.198572,-0.559027 0.170714,0 1.071161,0.709621 1.327287,1.046005 0.492619,0.64698 0.630867,1.100639 0.633392,2.078459 0.0021,0.810377 -0.0098,0.874159 -0.256296,1.374868 -0.30195,0.613348 -0.885343,1.228709 -1.457953,1.537846 -0.829943,0.448063 -0.564457,0.437847 -11.160465,0.429476 -5.343531,-0.0042 -9.895167,-0.03767 -10.114746,-0.07433 z"
       id="path3527"
       inkscape:connector-curvature="0"
       transform="translate(343.03215,500.43979)" />
  </g>
</svg>
