<?xml version="1.0" encoding="UTF-8" standalone="no"?>
<svg
   xmlns:osb="http://www.openswatchbook.org/uri/2009/osb"
   xmlns:dc="http://purl.org/dc/elements/1.1/"
   xmlns:cc="http://creativecommons.org/ns#"
   xmlns:rdf="http://www.w3.org/1999/02/22-rdf-syntax-ns#"
   xmlns:svg="http://www.w3.org/2000/svg"
   xmlns="http://www.w3.org/2000/svg"
   xmlns:sodipodi="http://sodipodi.sourceforge.net/DTD/sodipodi-0.dtd"
   xmlns:inkscape="http://www.inkscape.org/namespaces/inkscape"
   width="16"
   height="16"
   id="svg2"
   version="1.1"
   inkscape:version="0.91 r13725"
   sodipodi:docname="icon-xs.svg">
  <metadata
     id="metadata33">
    <rdf:RDF>
      <cc:Work
         rdf:about="">
        <dc:format>image/svg+xml</dc:format>
        <dc:type
           rdf:resource="http://purl.org/dc/dcmitype/StillImage" />
        <dc:title />
      </cc:Work>
    </rdf:RDF>
  </metadata>
  <sodipodi:namedview
     pagecolor="#ffffff"
     bordercolor="#666666"
     borderopacity="1"
     objecttolerance="10"
     gridtolerance="10"
     guidetolerance="10"
     inkscape:pageopacity="0"
     inkscape:pageshadow="2"
     inkscape:window-width="1680"
     inkscape:window-height="999"
     id="namedview67"
     showgrid="false"
     inkscape:zoom="47.435079"
     inkscape:cx="9.2236783"
     inkscape:cy="7.9715692"
     inkscape:window-x="0"
     inkscape:window-y="25"
     inkscape:window-maximized="1"
     inkscape:current-layer="svg2"
     inkscape:showpageshadow="true" />
  <defs
     id="defs4">
    <linearGradient
       id="linearGradient5643"
       osb:paint="solid">
      <stop
         style="stop-color:#000000;stop-opacity:1;"
         offset="0"
         id="stop5645" />
    </linearGradient>
    <linearGradient
       id="linearGradient4193"
       osb:paint="solid">
      <stop
         style="stop-color:#000000;stop-opacity:1;"
         offset="0"
         id="stop4195" />
    </linearGradient>
    <linearGradient
       id="linearGradient3764"
       x1="1"
       x2="47"
       gradientUnits="userSpaceOnUse"
       gradientTransform="matrix(0.33717547,0,0,0.33717547,-16.092141,-0.09146461)">
      <stop
         stop-color="#e4e4e4"
         stop-opacity="1"
         id="stop7" />
      <stop
         offset="1"
         stop-color="#eee"
         stop-opacity="1"
         id="stop9" />
    </linearGradient>
  </defs>
  <rect
     style="fill:url(#linearGradient3764);fill-opacity:1;stroke:#cfcfcf;stroke-width:0.48992872;stroke-miterlimit:2;stroke-dasharray:none;stroke-opacity:1"
     id="rect33"
     transform="matrix(0,-1,1,0,0,0)"
     rx="1.3487018"
     y="0.24496436"
     x="-15.755035"
     height="15.510071"
     width="15.510072" />
  <g
     id="g35"
     transform="matrix(0.34782609,0,0,0.34042697,-0.34782616,-0.33974564)" />
  <g
     id="g4285"
     transform="matrix(0.34782609,0,0,0.34042697,0.18774024,-6.3143915)" />
  <g
     id="g4269"
     transform="matrix(0.37457249,0,0,0.40026104,-1.0132501,-12.688504)">
    <g
       id="g4178">
      <path
         id="path4276"
         d="m 19.01962,50.035204 c -2.796436,0 -5.594448,0 -8.390891,0 -3.2701399,-6.53e-4 -5.9607737,-2.227997 -6.5639659,-5.430232 -0.6394942,-3.388567 1.5174284,-6.747124 4.8775793,-7.550853 0.465812,-0.110526 0.705826,-0.300015 0.890564,-0.750027 1.6342736,-3.990184 5.7223476,-6.417125 10.0488616,-6.004996 4.266495,0.408961 7.824021,3.633319 8.632467,7.884027 0.12317,0.645819 0.337918,0.963195 1.002679,1.203196 2.378002,0.85583 3.772267,3.300151 3.462784,5.851842 -0.295284,2.420623 -2.273787,4.411768 -4.730737,4.721251 -0.538442,0.0679 -1.087932,0.06937 -1.632699,0.07105 -2.532743,0.0073 -5.063905,0.0039 -7.596642,0.0039 z m 9.595674,-8.321403 c -0.11527,0.459487 -0.203693,0.877934 -0.328437,1.285314 -0.235271,0.778449 -0.890571,1.1669 -1.590072,0.964775 -0.699501,-0.202105 -1.002672,-0.868453 -0.806872,-1.673751 0.143699,-0.590549 0.296853,-1.193734 0.328438,-1.79692 0.206861,-4.20965 -3.014341,-7.642431 -7.233471,-7.741916 -2.835908,-0.06627 -5.686026,1.730602 -6.737657,4.266508 0.107339,0.04103 0.210005,0.09157 0.317389,0.124744 0.948977,0.293697 1.776391,0.79108 2.510633,1.45111 0.426333,0.382119 0.653711,0.836882 0.470541,1.414794 -0.301589,0.953727 -1.357956,1.166888 -2.14588,0.440545 -1.376911,-1.271108 -3.315936,-1.493743 -4.9091636,-0.563701 -1.5916399,0.930035 -2.3637844,2.756952 -1.9263888,4.552298 0.4594801,1.87745 2.1427178,3.124861 4.2491274,3.124861 5.460229,0.0033 10.920471,0.0033 16.380687,-0.0033 0.312658,0 0.628459,-0.03319 0.93636,-0.09319 1.226901,-0.233703 2.270625,-1.389535 2.377996,-2.608536 0.124744,-1.408496 -0.593692,-2.624328 -1.89323,-3.143828 z"
         style="clip-rule:evenodd;fill:#000000;fill-opacity:0.09803922;fill-rule:evenodd"
         inkscape:connector-curvature="0"
         transform="translate(1.5397495,10.780575)" />
      <path
         id="path4278"
         d="m 41.218997,44.328708 c -0.04103,2.730131 -0.708988,5.09549 -2.112728,7.239796 -0.309502,0.472116 -0.731092,0.726342 -1.294793,0.628432 -0.933198,-0.161053 -1.343739,-1.121085 -0.822665,-1.940593 0.798973,-1.255323 1.350051,-2.597474 1.583747,-4.070701 0.412123,-2.603793 -0.08995,-5.018116 -1.476382,-7.255588 -0.127888,-0.208411 -0.25895,-0.431058 -0.309476,-0.666336 -0.124758,-0.582649 0.198955,-1.151095 0.732654,-1.369005 0.535292,-0.217904 1.174793,-0.05371 1.501655,0.42949 1.19531,1.770086 1.896399,3.721741 2.111134,5.847092 0.0458,0.445288 0.06627,0.89057 0.08685,1.157413 z"
         style="clip-rule:evenodd;fill:#000000;fill-opacity:0.09803922;fill-rule:evenodd"
         inkscape:connector-curvature="0"
         transform="translate(1.5397495,10.780575)" />
      <path
         id="path4280"
         d="m 37.072503,44.67295 c -0.01575,1.651641 -0.492659,3.309612 -1.466908,4.820729 -0.435808,0.678978 -1.187423,0.904768 -1.782716,0.541591 -0.637913,-0.391587 -0.773706,-1.147933 -0.341054,-1.858483 1.4811,-2.425372 1.492168,-4.857063 0.02842,-7.293477 -0.453181,-0.754765 -0.333181,-1.512705 0.311064,-1.899561 0.625283,-0.375808 1.351625,-0.149998 1.811118,0.576351 0.958477,1.515847 1.438487,3.173819 1.440068,5.11285 z"
         style="clip-rule:evenodd;fill:#000000;fill-opacity:0.09803922;fill-rule:evenodd"
         inkscape:connector-curvature="0"
         transform="translate(1.5397495,10.780575)" />
      <path
         transform="matrix(2.875,0,0,2.9374876,0.99999629,29.329022)"
         inkscape:connector-curvature="0"
         id="path4281"
         d="M 6.9390883,4.1011501 4.7869137,4.9734942 2.1130009,7.5692498 2.4390879,9.5267049 4.8521311,10.207559 10.721697,10.101175 11.026045,7.7181866 9.6564797,6.5692456 8.0260449,4.3564703 Z"
         style="opacity:1;fill:#f9f9f9;fill-opacity:1;fill-rule:evenodd;stroke:none;stroke-width:1px;stroke-linecap:butt;stroke-linejoin:miter;stroke-opacity:1" />
      <path
         inkscape:connector-curvature="0"
         style="clip-rule:evenodd;fill:#283751;fill-opacity:1;fill-rule:evenodd"
         d="m 20.43383,60.158231 c -2.796436,0 -5.594448,0 -8.390891,0 -3.2701403,-6.53e-4 -5.9607741,-2.227997 -6.5639663,-5.430232 -0.6394942,-3.388567 1.5174284,-6.747124 4.8775793,-7.550853 0.465812,-0.110526 0.705826,-0.300015 0.890564,-0.750027 1.634274,-3.990184 5.722348,-6.417125 10.048862,-6.004996 4.266495,0.408961 7.824021,3.633319 8.632467,7.884027 0.12317,0.645819 0.337918,0.963195 1.002679,1.203196 2.378002,0.85583 3.772267,3.300151 3.462784,5.851842 -0.295284,2.420623 -2.273787,4.411768 -4.730737,4.721251 -0.538442,0.0679 -1.087932,0.06937 -1.632699,0.07105 -2.532743,0.0073 -5.063905,0.0039 -7.596642,0.0039 z m 9.595674,-8.321403 c -0.11527,0.459487 -0.203693,0.877934 -0.328437,1.285314 -0.235271,0.778449 -0.890571,1.1669 -1.590072,0.964775 -0.699501,-0.202105 -1.002672,-0.868453 -0.806872,-1.673751 0.143699,-0.590549 0.296853,-1.193734 0.328438,-1.79692 0.206861,-4.20965 -3.014341,-7.642431 -7.233471,-7.741916 -2.835908,-0.06627 -5.686026,1.730602 -6.737657,4.266508 0.107339,0.04103 0.210005,0.09157 0.317389,0.124744 0.948977,0.293697 1.776391,0.79108 2.510633,1.45111 0.426333,0.382119 0.653711,0.836882 0.470541,1.414794 -0.301589,0.953727 -1.357956,1.166888 -2.14588,0.440545 -1.376911,-1.271108 -3.315936,-1.493743 -4.909164,-0.563701 -1.5916399,0.930035 -2.3637844,2.756952 -1.9263888,4.552298 0.4594801,1.87745 2.1427178,3.124861 4.2491278,3.124861 5.460229,0.0033 10.920471,0.0033 16.380687,-0.0033 0.312658,0 0.628459,-0.03319 0.93636,-0.09319 1.226901,-0.233703 2.270625,-1.389535 2.377996,-2.608536 0.124744,-1.408496 -0.593692,-2.624328 -1.89323,-3.143828 z"
         id="path3" />
      <path
         inkscape:connector-curvature="0"
         style="clip-rule:evenodd;fill:#283751;fill-opacity:1;fill-rule:evenodd"
         d="m 42.633207,54.451735 c -0.04103,2.730131 -0.708988,5.09549 -2.112728,7.239796 -0.309502,0.472116 -0.731092,0.726342 -1.294793,0.628432 -0.933198,-0.161053 -1.343739,-1.121085 -0.822665,-1.940593 0.798973,-1.255323 1.350051,-2.597474 1.583747,-4.070701 0.412123,-2.603793 -0.08995,-5.018116 -1.476382,-7.255588 -0.127888,-0.208411 -0.25895,-0.431058 -0.309476,-0.666336 -0.124758,-0.582649 0.198955,-1.151095 0.732654,-1.369005 0.535292,-0.217904 1.174793,-0.05371 1.501655,0.42949 1.19531,1.770086 1.896399,3.721741 2.111134,5.847092 0.0458,0.445288 0.06627,0.89057 0.08685,1.157413 z"
         id="path5" />
      <path
         inkscape:connector-curvature="0"
         style="clip-rule:evenodd;fill:#283751;fill-opacity:1;fill-rule:evenodd"
         d="m 38.486713,54.795977 c -0.01575,1.651641 -0.492659,3.309612 -1.466908,4.820729 -0.435808,0.678978 -1.187423,0.904768 -1.782716,0.541591 -0.637913,-0.391587 -0.773706,-1.147933 -0.341054,-1.858483 1.4811,-2.425372 1.492168,-4.857063 0.02842,-7.293477 -0.453181,-0.754765 -0.333181,-1.512705 0.311064,-1.899561 0.625283,-0.375808 1.351625,-0.149998 1.811118,0.576351 0.958477,1.515847 1.438487,3.173819 1.440068,5.11285 z"
         id="path7" />
    </g>
  </g>
</svg>
