<?xml version="1.0" encoding="UTF-8" standalone="no"?>
<svg
   xmlns:dc="http://purl.org/dc/elements/1.1/"
   xmlns:cc="http://creativecommons.org/ns#"
   xmlns:rdf="http://www.w3.org/1999/02/22-rdf-syntax-ns#"
   xmlns:svg="http://www.w3.org/2000/svg"
   xmlns="http://www.w3.org/2000/svg"
   xmlns:xlink="http://www.w3.org/1999/xlink"
   xmlns:sodipodi="http://sodipodi.sourceforge.net/DTD/sodipodi-0.dtd"
   xmlns:inkscape="http://www.inkscape.org/namespaces/inkscape"
   viewBox="0 0 48 48"
   id="svg2"
   version="1.1"
   inkscape:version="0.48.5 r10040"
   sodipodi:docname="icon-xs.svg"
   width="100%"
   height="100%">
  <title
     id="title4336">Mixcloud for Nuvola player</title>
  <metadata
     id="metadata77">
    <rdf:RDF>
      <cc:Work
         rdf:about="">
        <dc:format>image/svg+xml</dc:format>
        <dc:type
           rdf:resource="http://purl.org/dc/dcmitype/StillImage" />
        <dc:title>Mixcloud for Nuvola player</dc:title>
        <dc:creator>
          <cc:Agent>
            <dc:title>Samuel Mansour</dc:title>
          </cc:Agent>
        </dc:creator>
        <cc:license
           rdf:resource="http://creativecommons.org/licenses/by-nc-sa/3.0/" />
      </cc:Work>
      <cc:License
         rdf:about="http://creativecommons.org/licenses/by-nc-sa/3.0/">
        <cc:permits
           rdf:resource="http://creativecommons.org/ns#Reproduction" />
        <cc:permits
           rdf:resource="http://creativecommons.org/ns#Distribution" />
        <cc:requires
           rdf:resource="http://creativecommons.org/ns#Notice" />
        <cc:requires
           rdf:resource="http://creativecommons.org/ns#Attribution" />
        <cc:prohibits
           rdf:resource="http://creativecommons.org/ns#CommercialUse" />
        <cc:permits
           rdf:resource="http://creativecommons.org/ns#DerivativeWorks" />
        <cc:requires
           rdf:resource="http://creativecommons.org/ns#ShareAlike" />
      </cc:License>
    </rdf:RDF>
  </metadata>
  <sodipodi:namedview
     pagecolor="#ffffff"
     bordercolor="#666666"
     borderopacity="1"
     objecttolerance="10"
     gridtolerance="10"
     guidetolerance="10"
     inkscape:pageopacity="0"
     inkscape:pageshadow="2"
     inkscape:window-width="1139"
     inkscape:window-height="714"
     id="namedview75"
     showgrid="false"
     inkscape:zoom="4.6434109"
     inkscape:cx="28.530552"
     inkscape:cy="12.504274"
     inkscape:window-x="51"
     inkscape:window-y="27"
     inkscape:window-maximized="0"
     inkscape:current-layer="svg2" />
  <defs
     id="defs4">
    <linearGradient
       inkscape:collect="always"
       xlink:href="#linearGradient7567"
       id="linearGradient4122"
       gradientUnits="userSpaceOnUse"
       gradientTransform="matrix(1.01883,0,0,1.01591,-0.648953,-0.463736)"
       x1="61.9585"
       y1="3"
       x2="6.2233124"
       y2="58.090912" />
    <linearGradient
       id="linearGradient7567">
      <stop
         style="stop-color:#9bdfee;stop-opacity:1;"
         offset="0"
         id="stop7569" />
      <stop
         style="stop-color:#66b7c9;stop-opacity:1;"
         offset="1"
         id="stop7571" />
    </linearGradient>
  </defs>
  <g
     id="g35" />
  <g
     inkscape:groupmode="layer"
     id="layer1"
     inkscape:label="cloud bg" />
  <g
     transform="matrix(0.75410914,0,0,0.75410914,0.31174783,-0.38247344)"
     style="display:inline"
     id="g3852">
    <rect
       style="fill:url(#linearGradient4122);fill-opacity:1;stroke:none"
       id="rect3854"
       width="63.935692"
       height="63.844788"
       x="0.032151747"
       y="0.12306051"
       ry="2.9927244" />
  </g>
  <g
     id="g4300"
     transform="matrix(1.231156,0,0,1.231156,-5.3323805,-5.763109)">
    <path
       inkscape:connector-curvature="0"
       id="path4281"
       d="m 21.231632,13.891559 -6.187501,2.5625 -7.6874993,7.625 0.9375,5.75 6.9374993,2 16.875001,-0.3125 0.875,-7 -3.9375,-3.375 -4.6875,-6.5 z"
       style="fill:#f9f9f9;fill-opacity:1;fill-rule:evenodd;stroke:none" />
    <g
       style="fill:#2d4c78;fill-opacity:1"
       id="g4153"
       transform="matrix(0.65338522,0,0,0.65338522,-221.70331,-323.43453)">
      <g
         id="g4217">
        <path
           id="path3"
           d="m 370.58864,545.21284 c -4.27992,0 -8.56225,0 -12.84218,0 -5.00492,-10e-4 -9.12291,-3.40993 -10.04609,-8.31092 -0.97874,-5.18617 2.32241,-10.32641 7.46509,-11.55651 0.71292,-0.16916 1.08026,-0.45917 1.363,-1.14791 2.50124,-6.10694 8.758,-9.82135 15.37969,-9.19059 6.52983,0.62591 11.97459,5.56076 13.21191,12.06643 0.18851,0.98842 0.51718,1.47416 1.53459,1.84148 3.63951,1.30984 5.77342,5.05085 5.29976,8.95619 -0.45193,3.70474 -3.48001,6.75217 -7.24035,7.22583 -0.82408,0.10392 -1.66507,0.10617 -2.49883,0.10874 -3.87634,0.0112 -7.75026,0.006 -11.62659,0.006 z m 14.68609,-12.73583 c -0.17642,0.70324 -0.31175,1.34367 -0.50267,1.96716 -0.36008,1.19141 -1.36301,1.78593 -2.43359,1.47658 -1.07058,-0.30932 -1.53458,-1.32916 -1.23491,-2.56166 0.21993,-0.90383 0.45433,-1.827 0.50267,-2.75017 0.3166,-6.44283 -4.61342,-11.69667 -11.07076,-11.84893 -4.34033,-0.10142 -8.70241,2.64867 -10.31192,6.52985 0.16428,0.0628 0.32141,0.14015 0.48576,0.19092 1.4524,0.4495 2.71875,1.21074 3.8425,2.22091 0.6525,0.58483 1.0005,1.28084 0.72016,2.16533 -0.46158,1.45967 -2.07834,1.78591 -3.28425,0.67425 -2.10735,-1.94542 -5.07501,-2.28616 -7.51343,-0.86274 -2.43599,1.42341 -3.61775,4.21949 -2.94832,6.96725 0.70323,2.87342 3.27941,4.78257 6.50325,4.78257 8.35683,0.005 16.71368,0.005 25.07049,-0.005 0.47852,0 0.96185,-0.0508 1.43309,-0.14262 1.87776,-0.35768 3.47517,-2.12667 3.6395,-3.99234 0.19092,-2.15569 -0.90864,-4.01651 -2.89757,-4.8116 z"
           style="fill:#2d2d2d;fill-opacity:1;fill-rule:evenodd"
           inkscape:connector-curvature="0" />
        <path
           id="path5"
           d="m 404.56458,536.4791 c -0.0628,4.17844 -1.0851,7.7986 -3.23351,11.08044 -0.47369,0.72257 -1.11893,1.11166 -1.98167,0.96181 -1.42825,-0.24649 -2.05658,-1.71581 -1.25908,-2.97006 1.22282,-1.92126 2.06624,-3.97541 2.42391,-6.23017 0.63075,-3.98508 -0.13767,-7.68018 -2.25959,-11.10461 -0.19573,-0.31897 -0.39632,-0.65973 -0.47365,-1.01982 -0.19094,-0.89174 0.3045,-1.76174 1.12132,-2.09525 0.81926,-0.3335 1.79801,-0.0822 2.29827,0.65733 1.82941,2.7091 2.90242,5.69609 3.23107,8.94892 0.0701,0.68151 0.10142,1.36301 0.13293,1.77141 z"
           style="fill:#2d2d2d;fill-opacity:1;fill-rule:evenodd"
           inkscape:connector-curvature="0" />
        <path
           id="path7"
           d="m 398.21841,537.00596 c -0.0241,2.52782 -0.75401,5.06533 -2.24509,7.37808 -0.667,1.03917 -1.81734,1.38474 -2.72843,0.8289 -0.97632,-0.59932 -1.18415,-1.7569 -0.52198,-2.84439 2.26681,-3.71201 2.28375,-7.43369 0.0435,-11.1626 -0.69359,-1.15516 -0.50993,-2.31518 0.47608,-2.90726 0.95699,-0.57517 2.06865,-0.22957 2.7719,0.8821 1.46694,2.31999 2.20159,4.8575 2.20401,7.82517 z"
           style="fill:#2d2d2d;fill-opacity:1;fill-rule:evenodd"
           inkscape:connector-curvature="0" />
      </g>
    </g>
  </g>
</svg>
